<svg width="180" height="42" viewBox="0 0 180 42" fill="none" xmlns="http://www.w3.org/2000/svg">
<rect width="180" height="42" rx="21" fill="#F3F3F7"/>
<path d="M34.79 20.89C35.3593 21.086 35.8027 21.394 36.12 21.814C36.4467 22.2247 36.61 22.7053 36.61 23.256C36.61 23.8533 36.414 24.3713 36.022 24.81C35.63 25.2487 35.098 25.5847 34.426 25.818C33.7633 26.0513 33.0353 26.168 32.242 26.168C31.57 26.168 30.898 26.084 30.226 25.916C29.5633 25.748 28.9333 25.4913 28.336 25.146L29.036 23.522C29.4653 23.7833 29.9367 23.984 30.45 24.124C30.9727 24.2547 31.4813 24.32 31.976 24.32C32.648 24.32 33.2033 24.1987 33.642 23.956C34.09 23.7133 34.314 23.3727 34.314 22.934C34.314 22.57 34.16 22.2947 33.852 22.108C33.5533 21.9213 33.1427 21.828 32.62 21.828H30.226V20.12H32.452C32.9093 20.12 33.264 20.0267 33.516 19.84C33.7773 19.6533 33.908 19.3967 33.908 19.07C33.908 18.6873 33.7213 18.3887 33.348 18.174C32.984 17.9593 32.5127 17.852 31.934 17.852C31.5047 17.852 31.0613 17.9127 30.604 18.034C30.1467 18.146 29.7127 18.3187 29.302 18.552L28.616 16.788C29.652 16.256 30.772 15.99 31.976 15.99C32.7413 15.99 33.446 16.102 34.09 16.326C34.734 16.55 35.2473 16.8767 35.63 17.306C36.0127 17.7353 36.204 18.2347 36.204 18.804C36.204 19.2707 36.078 19.686 35.826 20.05C35.574 20.414 35.2287 20.694 34.79 20.89ZM41.1635 18.356C42.3302 18.356 43.2262 18.636 43.8515 19.196C44.4768 19.7467 44.7895 20.582 44.7895 21.702V26H42.7455V25.062C42.3348 25.762 41.5695 26.112 40.4495 26.112C39.8708 26.112 39.3668 26.014 38.9375 25.818C38.5175 25.622 38.1955 25.3513 37.9715 25.006C37.7475 24.6607 37.6355 24.2687 37.6355 23.83C37.6355 23.13 37.8968 22.5793 38.4195 22.178C38.9515 21.7767 39.7682 21.576 40.8695 21.576H42.6055C42.6055 21.1 42.4608 20.736 42.1715 20.484C41.8822 20.2227 41.4482 20.092 40.8695 20.092C40.4682 20.092 40.0715 20.1573 39.6795 20.288C39.2968 20.4093 38.9702 20.5773 38.6995 20.792L37.9155 19.266C38.3262 18.9767 38.8162 18.7527 39.3855 18.594C39.9642 18.4353 40.5568 18.356 41.1635 18.356ZM40.9955 24.642C41.3688 24.642 41.7002 24.558 41.9895 24.39C42.2788 24.2127 42.4842 23.956 42.6055 23.62V22.85H41.1075C40.2115 22.85 39.7635 23.144 39.7635 23.732C39.7635 24.012 39.8708 24.236 40.0855 24.404C40.3095 24.5627 40.6128 24.642 40.9955 24.642ZM50.0047 23.144H48.8707V26H46.6867V18.468H48.8707V21.394H50.0467L52.0907 18.468H54.4147L51.7827 22.08L54.5967 26H52.0207L50.0047 23.144ZM58.4584 18.356C59.6251 18.356 60.5211 18.636 61.1464 19.196C61.7718 19.7467 62.0844 20.582 62.0844 21.702V26H60.0404V25.062C59.6298 25.762 58.8644 26.112 57.7444 26.112C57.1658 26.112 56.6618 26.014 56.2324 25.818C55.8124 25.622 55.4904 25.3513 55.2664 25.006C55.0424 24.6607 54.9304 24.2687 54.9304 23.83C54.9304 23.13 55.1918 22.5793 55.7144 22.178C56.2464 21.7767 57.0631 21.576 58.1644 21.576H59.9004C59.9004 21.1 59.7558 20.736 59.4664 20.484C59.1771 20.2227 58.7431 20.092 58.1644 20.092C57.7631 20.092 57.3664 20.1573 56.9744 20.288C56.5918 20.4093 56.2651 20.5773 55.9944 20.792L55.2104 19.266C55.6211 18.9767 56.1111 18.7527 56.6804 18.594C57.2591 18.4353 57.8518 18.356 58.4584 18.356ZM58.2904 24.642C58.6638 24.642 58.9951 24.558 59.2844 24.39C59.5738 24.2127 59.7791 23.956 59.9004 23.62V22.85H58.4024C57.5064 22.85 57.0584 23.144 57.0584 23.732C57.0584 24.012 57.1658 24.236 57.3804 24.404C57.6044 24.5627 57.9078 24.642 58.2904 24.642ZM68.7993 22.08C69.2473 22.22 69.5926 22.4347 69.8353 22.724C70.0873 23.0133 70.2133 23.3587 70.2133 23.76C70.2133 24.236 70.0499 24.656 69.7233 25.02C69.3966 25.3747 68.9486 25.65 68.3793 25.846C67.8099 26.042 67.1659 26.14 66.4473 26.14C65.8593 26.14 65.2806 26.0793 64.7113 25.958C64.1419 25.8367 63.6146 25.6547 63.1293 25.412L63.7173 23.886C64.5106 24.2687 65.3879 24.46 66.3493 24.46C66.8626 24.46 67.2639 24.3853 67.5533 24.236C67.8519 24.0773 68.0013 23.858 68.0013 23.578C68.0013 23.3353 67.8986 23.1533 67.6933 23.032C67.4879 22.9013 67.1893 22.836 66.7973 22.836H65.2573V21.478H66.6013C66.9839 21.478 67.2779 21.4173 67.4833 21.296C67.6886 21.1747 67.7913 20.9973 67.7913 20.764C67.7913 20.5213 67.6606 20.3347 67.3993 20.204C67.1473 20.0733 66.7833 20.008 66.3073 20.008C65.5793 20.008 64.7859 20.1807 63.9273 20.526L63.3953 19.014C64.4406 18.5567 65.4579 18.328 66.4473 18.328C67.1286 18.328 67.7353 18.412 68.2673 18.58C68.8086 18.748 69.2333 18.9953 69.5413 19.322C69.8493 19.6393 70.0033 20.0127 70.0033 20.442C70.0033 20.7967 69.8959 21.1187 69.6813 21.408C69.4666 21.688 69.1726 21.912 68.7993 22.08ZM74.728 18.356C75.8946 18.356 76.7906 18.636 77.416 19.196C78.0413 19.7467 78.354 20.582 78.354 21.702V26H76.31V25.062C75.8993 25.762 75.134 26.112 74.014 26.112C73.4353 26.112 72.9313 26.014 72.502 25.818C72.082 25.622 71.76 25.3513 71.536 25.006C71.312 24.6607 71.2 24.2687 71.2 23.83C71.2 23.13 71.4613 22.5793 71.984 22.178C72.516 21.7767 73.3326 21.576 74.434 21.576H76.17C76.17 21.1 76.0253 20.736 75.736 20.484C75.4466 20.2227 75.0126 20.092 74.434 20.092C74.0326 20.092 73.636 20.1573 73.244 20.288C72.8613 20.4093 72.5346 20.5773 72.264 20.792L71.48 19.266C71.8906 18.9767 72.3806 18.7527 72.95 18.594C73.5286 18.4353 74.1213 18.356 74.728 18.356ZM74.56 24.642C74.9333 24.642 75.2646 24.558 75.554 24.39C75.8433 24.2127 76.0486 23.956 76.17 23.62V22.85H74.672C73.776 22.85 73.328 23.144 73.328 23.732C73.328 24.012 73.4353 24.236 73.65 24.404C73.874 24.5627 74.1773 24.642 74.56 24.642ZM86.5792 20.26H84.0312V26H81.8612V20.26H79.3132V18.468H86.5792V20.26ZM91.8174 20.876C92.7974 20.8853 93.5487 21.1093 94.0714 21.548C94.594 21.9773 94.8554 22.5887 94.8554 23.382C94.8554 24.2127 94.5614 24.8613 93.9734 25.328C93.3947 25.7853 92.578 26.014 91.5234 26.014L87.7434 26V18.468H89.9134V20.876H91.8174ZM91.3274 24.46C91.7474 24.4693 92.0694 24.3807 92.2934 24.194C92.5174 24.0073 92.6294 23.7273 92.6294 23.354C92.6294 22.99 92.5174 22.724 92.2934 22.556C92.0787 22.388 91.7567 22.2993 91.3274 22.29L89.9134 22.276V24.46H91.3274ZM105.071 22.08C105.519 22.22 105.864 22.4347 106.107 22.724C106.359 23.0133 106.485 23.3587 106.485 23.76C106.485 24.236 106.321 24.656 105.995 25.02C105.668 25.3747 105.22 25.65 104.651 25.846C104.081 26.042 103.437 26.14 102.719 26.14C102.131 26.14 101.552 26.0793 100.983 25.958C100.413 25.8367 99.8861 25.6547 99.4008 25.412L99.9888 23.886C100.782 24.2687 101.659 24.46 102.621 24.46C103.134 24.46 103.535 24.3853 103.825 24.236C104.123 24.0773 104.273 23.858 104.273 23.578C104.273 23.3353 104.17 23.1533 103.965 23.032C103.759 22.9013 103.461 22.836 103.069 22.836H101.529V21.478H102.873C103.255 21.478 103.549 21.4173 103.755 21.296C103.96 21.1747 104.063 20.9973 104.063 20.764C104.063 20.5213 103.932 20.3347 103.671 20.204C103.419 20.0733 103.055 20.008 102.579 20.008C101.851 20.008 101.057 20.1807 100.199 20.526L99.6668 19.014C100.712 18.5567 101.729 18.328 102.719 18.328C103.4 18.328 104.007 18.412 104.539 18.58C105.08 18.748 105.505 18.9953 105.813 19.322C106.121 19.6393 106.275 20.0127 106.275 20.442C106.275 20.7967 106.167 21.1187 105.953 21.408C105.738 21.688 105.444 21.912 105.071 22.08ZM113.827 22.066C114.714 22.3647 115.157 22.962 115.157 23.858C115.157 24.5393 114.901 25.0667 114.387 25.44C113.874 25.8133 113.109 26 112.091 26H108.073V18.468H111.923C112.866 18.468 113.603 18.6407 114.135 18.986C114.667 19.322 114.933 19.798 114.933 20.414C114.933 20.7873 114.835 21.1187 114.639 21.408C114.453 21.688 114.182 21.9073 113.827 22.066ZM110.075 21.562H111.727C112.493 21.562 112.875 21.2913 112.875 20.75C112.875 20.218 112.493 19.952 111.727 19.952H110.075V21.562ZM111.909 24.516C112.712 24.516 113.113 24.2407 113.113 23.69C113.113 23.4007 113.02 23.1907 112.833 23.06C112.647 22.92 112.353 22.85 111.951 22.85H110.075V24.516H111.909ZM120.31 26.112C119.517 26.112 118.803 25.9487 118.168 25.622C117.543 25.286 117.053 24.824 116.698 24.236C116.344 23.648 116.166 22.9807 116.166 22.234C116.166 21.4873 116.344 20.82 116.698 20.232C117.053 19.644 117.543 19.1867 118.168 18.86C118.803 18.524 119.517 18.356 120.31 18.356C121.104 18.356 121.813 18.524 122.438 18.86C123.064 19.1867 123.554 19.644 123.908 20.232C124.263 20.82 124.44 21.4873 124.44 22.234C124.44 22.9807 124.263 23.648 123.908 24.236C123.554 24.824 123.064 25.286 122.438 25.622C121.813 25.9487 121.104 26.112 120.31 26.112ZM120.31 24.32C120.87 24.32 121.328 24.1333 121.682 23.76C122.046 23.3773 122.228 22.8687 122.228 22.234C122.228 21.5993 122.046 21.0953 121.682 20.722C121.328 20.3393 120.87 20.148 120.31 20.148C119.75 20.148 119.288 20.3393 118.924 20.722C118.56 21.0953 118.378 21.5993 118.378 22.234C118.378 22.8687 118.56 23.3773 118.924 23.76C119.288 24.1333 119.75 24.32 120.31 24.32ZM125.943 18.468H128.113V21.408H131.389V18.468H133.573V26H131.389V23.186H128.113V26H125.943V18.468ZM139.191 26.112C138.398 26.112 137.684 25.9487 137.049 25.622C136.424 25.286 135.934 24.824 135.579 24.236C135.225 23.648 135.047 22.9807 135.047 22.234C135.047 21.4873 135.225 20.82 135.579 20.232C135.934 19.644 136.424 19.1867 137.049 18.86C137.684 18.524 138.398 18.356 139.191 18.356C139.985 18.356 140.694 18.524 141.319 18.86C141.945 19.1867 142.435 19.644 142.789 20.232C143.144 20.82 143.321 21.4873 143.321 22.234C143.321 22.9807 143.144 23.648 142.789 24.236C142.435 24.824 141.945 25.286 141.319 25.622C140.694 25.9487 139.985 26.112 139.191 26.112ZM139.191 24.32C139.751 24.32 140.209 24.1333 140.563 23.76C140.927 23.3773 141.109 22.8687 141.109 22.234C141.109 21.5993 140.927 21.0953 140.563 20.722C140.209 20.3393 139.751 20.148 139.191 20.148C138.631 20.148 138.169 20.3393 137.805 20.722C137.441 21.0953 137.259 21.5993 137.259 22.234C137.259 22.8687 137.441 23.3773 137.805 23.76C138.169 24.1333 138.631 24.32 139.191 24.32ZM148.141 23.144H147.007V26H144.823V18.468H147.007V21.394H148.183L150.227 18.468H152.551L149.919 22.08L152.733 26H150.157L148.141 23.144Z" fill="#696F7A"/>
</svg>
