<svg width="160" height="42" viewBox="0 0 160 42" fill="none" xmlns="http://www.w3.org/2000/svg">
<rect width="160" height="42" rx="8" fill="#FF2E65"/>
<path d="M30.696 22.28H28.616V27H26.568V15.8H28.616V20.488H30.76L33.976 15.8H36.184L32.36 21.224L36.328 27H33.976L30.696 22.28ZM41.2145 27.112C40.3505 27.112 39.5718 26.9253 38.8785 26.552C38.1852 26.1787 37.6412 25.6613 37.2465 25C36.8625 24.328 36.6705 23.5707 36.6705 22.728C36.6705 21.8853 36.8625 21.1333 37.2465 20.472C37.6412 19.8107 38.1852 19.2933 38.8785 18.92C39.5718 18.5467 40.3505 18.36 41.2145 18.36C42.0892 18.36 42.8732 18.5467 43.5665 18.92C44.2598 19.2933 44.7985 19.8107 45.1825 20.472C45.5772 21.1333 45.7745 21.8853 45.7745 22.728C45.7745 23.5707 45.5772 24.328 45.1825 25C44.7985 25.6613 44.2598 26.1787 43.5665 26.552C42.8732 26.9253 42.0892 27.112 41.2145 27.112ZM41.2145 25.4C41.9505 25.4 42.5585 25.1547 43.0385 24.664C43.5185 24.1733 43.7585 23.528 43.7585 22.728C43.7585 21.928 43.5185 21.2827 43.0385 20.792C42.5585 20.3013 41.9505 20.056 41.2145 20.056C40.4785 20.056 39.8705 20.3013 39.3905 20.792C38.9212 21.2827 38.6865 21.928 38.6865 22.728C38.6865 23.528 38.9212 24.1733 39.3905 24.664C39.8705 25.1547 40.4785 25.4 41.2145 25.4ZM52.4863 18.36C53.3183 18.36 54.0596 18.5413 54.7103 18.904C55.3716 19.2667 55.8889 19.7787 56.2623 20.44C56.6356 21.1013 56.8223 21.864 56.8223 22.728C56.8223 23.592 56.6356 24.36 56.2623 25.032C55.8889 25.6933 55.3716 26.2053 54.7103 26.568C54.0596 26.9307 53.3183 27.112 52.4863 27.112C51.3343 27.112 50.4223 26.728 49.7503 25.96V30.104H47.7503V18.456H49.6543V19.576C49.9849 19.1707 50.3903 18.8667 50.8703 18.664C51.3609 18.4613 51.8996 18.36 52.4863 18.36ZM52.2623 25.4C52.9983 25.4 53.6009 25.1547 54.0703 24.664C54.5503 24.1733 54.7903 23.528 54.7903 22.728C54.7903 21.928 54.5503 21.2827 54.0703 20.792C53.6009 20.3013 52.9983 20.056 52.2623 20.056C51.7823 20.056 51.3503 20.168 50.9663 20.392C50.5823 20.6053 50.2783 20.9147 50.0543 21.32C49.8303 21.7253 49.7183 22.1947 49.7183 22.728C49.7183 23.2613 49.8303 23.7307 50.0543 24.136C50.2783 24.5413 50.5823 24.856 50.9663 25.08C51.3503 25.2933 51.7823 25.4 52.2623 25.4ZM63.7918 22.552C64.3251 22.7013 64.7358 22.9467 65.0238 23.288C65.3224 23.6187 65.4718 24.0187 65.4718 24.488C65.4718 25.0107 65.2958 25.4747 64.9438 25.88C64.5918 26.2747 64.1064 26.584 63.4878 26.808C62.8691 27.032 62.1651 27.144 61.3758 27.144C60.7144 27.144 60.0691 27.0693 59.4398 26.92C58.8104 26.76 58.2398 26.536 57.7278 26.248L58.3038 24.76C58.7198 24.9947 59.1891 25.176 59.7118 25.304C60.2344 25.432 60.7571 25.496 61.2798 25.496C61.9518 25.496 62.4744 25.3947 62.8478 25.192C63.2318 24.9787 63.4238 24.6907 63.4238 24.328C63.4238 23.9973 63.2744 23.7413 62.9758 23.56C62.6878 23.3787 62.2771 23.288 61.7438 23.288H60.0798V21.944H61.5838C62.0851 21.944 62.4744 21.8587 62.7518 21.688C63.0398 21.5173 63.1838 21.2773 63.1838 20.968C63.1838 20.6587 63.0131 20.4133 62.6718 20.232C62.3304 20.0507 61.8611 19.96 61.2638 19.96C60.4104 19.96 59.5091 20.168 58.5598 20.584L58.0478 19.112C59.1678 18.5893 60.2984 18.328 61.4398 18.328C62.1651 18.328 62.8158 18.4293 63.3918 18.632C63.9678 18.824 64.4158 19.1013 64.7358 19.464C65.0664 19.816 65.2318 20.2213 65.2318 20.68C65.2318 21.096 65.1038 21.4693 64.8478 21.8C64.5918 22.12 64.2398 22.3707 63.7918 22.552ZM67.5471 18.456H69.5471V24.088L74.2671 18.456H76.0911V27H74.0911V21.368L69.3871 27H67.5471V18.456ZM78.7815 18.456H80.7815V21.928H85.0855V18.456H87.0855V27H85.0855V23.624H80.7815V27H78.7815V18.456ZM92.9499 18.36C94.2085 18.36 95.1685 18.664 95.8299 19.272C96.5019 19.8693 96.8379 20.776 96.8379 21.992V27H94.9499V25.96C94.7045 26.3333 94.3525 26.6213 93.8939 26.824C93.4459 27.016 92.9019 27.112 92.2619 27.112C91.6219 27.112 91.0619 27.0053 90.5819 26.792C90.1019 26.568 89.7285 26.264 89.4619 25.88C89.2059 25.4853 89.0779 25.0427 89.0779 24.552C89.0779 23.784 89.3605 23.1707 89.9259 22.712C90.5019 22.2427 91.4032 22.008 92.6299 22.008H94.8379V21.88C94.8379 21.2827 94.6565 20.824 94.2939 20.504C93.9419 20.184 93.4139 20.024 92.7099 20.024C92.2299 20.024 91.7552 20.0987 91.2859 20.248C90.8272 20.3973 90.4379 20.6053 90.1179 20.872L89.3339 19.416C89.7819 19.0747 90.3205 18.8133 90.9499 18.632C91.5792 18.4507 92.2459 18.36 92.9499 18.36ZM92.6779 25.656C93.1792 25.656 93.6219 25.544 94.0059 25.32C94.4005 25.0853 94.6779 24.7547 94.8379 24.328V23.336H92.7739C91.6219 23.336 91.0459 23.7147 91.0459 24.472C91.0459 24.8347 91.1899 25.1227 91.4779 25.336C91.7659 25.5493 92.1659 25.656 92.6779 25.656Z" fill="white"/>
<path d="M133.576 15.8V27H131.496V17.544H129.128V15.8H133.576Z" fill="white"/>
<rect x="109" y="10" width="2" height="23" rx="1" fill="white"/>
</svg>
